<svg xmlns="http://www.w3.org/2000/svg" viewBox="0 0 42.52 42.52"><defs><style>.cls-1{fill:#2b2f37;}</style></defs><title>Untitled-1</title><g id="Gestaltung"><path class="cls-1" d="M33.58,37.05H31.51l-.07-4.2c0-3.75-2.06-7.2-5.8-9.72a2.1,2.1,0,0,1-.75-1.76,2.12,2.12,0,0,1,.75-1.76c3.74-2.51,5.8-6,5.8-9.72V5.94h2.07c.67,0,1.21-.3,1.21-1s-.82-.93-1.49-.93H9C8.28,4.05,8,4.31,8,5s.54,1,1.21,1H11.3v4c0,3.76,2.06,7.21,5.8,9.72a2.12,2.12,0,0,1,.75,1.76,2.1,2.1,0,0,1-.75,1.76c-3.74,2.52-5.8,6-5.8,9.72l.07,4.2H9.3A1.21,1.21,0,0,0,8,38.19c0,.66.54.79,1.21.79H33.51c.67,0,1.21-.13,1.21-.79A1.09,1.09,0,0,0,33.58,37.05Zm-4.48,0H13.78l-.07-4.2c0-3.94,3-6.52,4.74-7.71a4.48,4.48,0,0,0,1.82-3.77,4.44,4.44,0,0,0-1.82-3.76c-1.77-1.19-4.74-3.77-4.74-7.72V5.94H29v4c0,3.95-3,6.53-4.74,7.72a4.44,4.44,0,0,0-1.82,3.76,4.48,4.48,0,0,0,1.82,3.77C26.06,26.33,29,28.91,29,32.85Z"/></g></svg>