<?xml version="1.0" encoding="utf-8"?>
<!-- Generator: Adobe Illustrator 18.0.0, SVG Export Plug-In . SVG Version: 6.00 Build 0)  -->
<!DOCTYPE svg PUBLIC "-//W3C//DTD SVG 1.1//EN" "http://www.w3.org/Graphics/SVG/1.1/DTD/svg11.dtd">
<svg version="1.1" id="Layer_1" xmlns="http://www.w3.org/2000/svg" xmlns:xlink="http://www.w3.org/1999/xlink" x="0px" y="0px"
	 viewBox="0 0 64 64" enable-background="new 0 0 64 64" xml:space="preserve">
<g>
	<path d="M45.8,0H10C7.8,0,6,1.8,6,4v56c0,2.2,1.8,4,4,4h44c2.2,0,4-1.8,4-4V11.1L45.8,0z M47,6.5l3.8,3.5H47V6.5z M10,60V4h33v10
		h11l0,46H10z"/>
	<path d="M40.5,42.7c1.6-2.2,2.5-4.8,2.5-7.7c0-7.2-5.8-13-13-13s-13,5.8-13,13s5.8,13,13,13c2.9,0,5.5-0.9,7.7-2.5l9.9,9.9l2.8-2.8
		L40.5,42.7z M30,44c-5,0-9-4-9-9s4-9,9-9s9,4,9,9S35,44,30,44z"/>
</g>
</svg>
